# xmcd
#
# Track frame offsets:
# 150
# 15689
# 30097
# 46396
# 58614
# 85459
# 99971
# 117136
# 132640
#
# Disc length: 2110 seconds
#
# Revision: 0
# Processed by: cddbd v1.5.2PL0 Copyright (c) Steve Scherf et al.
# Submitted via: Axialis_AX_CDPlayer 2.6
#
DISCID=6b083c09
DTITLE=Bo Diddley - Where It All Began
DYEAR=1900
DGENRE=
TTITLE0=I've Had It Hard
TTITLE1=Woman
TTITLE2=Look At Grandma
TTITLE3=A Good Thing
TTITLE4=Bad Trip
TTITLE5=Hey, Jerome
TTITLE6=Infatuation
TTITLE7=Take It All Off
TTITLE8=Bo Diddley-Itis
EXTD=http://members.tripod.com/~Originator_2/index.html
EXTT0=
EXTT1=
EXTT2=
EXTT3=
EXTT4=
EXTT5=
EXTT6=
EXTT7=
EXTT8=
PLAYORDER=
